<svg width="97" height="25" viewBox="0 0 97 25" fill="none" xmlns="http://www.w3.org/2000/svg">
<path d="M1.16153 4.824C1.25753 3.336 1.82553 2.176 2.86553 1.344C3.92153 0.511999 5.26553 0.0959988 6.89753 0.0959988C8.01753 0.0959988 8.98553 0.295999 9.80153 0.696C10.6175 1.096 11.2335 1.64 11.6495 2.328C12.0655 3.016 12.2735 3.792 12.2735 4.656C12.2735 5.648 12.0095 6.496 11.4815 7.2C10.9535 7.904 10.3215 8.376 9.58553 8.616V8.712C10.5295 9 11.2655 9.528 11.7935 10.296C12.3215 11.048 12.5855 12.016 12.5855 13.2C12.5855 14.144 12.3695 14.984 11.9375 15.72C11.5055 16.456 10.8655 17.04 10.0175 17.472C9.16953 17.888 8.15353 18.096 6.96953 18.096C5.24153 18.096 3.81753 17.656 2.69753 16.776C1.59353 15.88 1.00153 14.6 0.921531 12.936H3.56153C3.62553 13.784 3.95353 14.48 4.54553 15.024C5.13753 15.552 5.93753 15.816 6.94553 15.816C7.92153 15.816 8.67353 15.552 9.20153 15.024C9.72953 14.48 9.99353 13.784 9.99353 12.936C9.99353 11.816 9.63353 11.024 8.91353 10.56C8.20953 10.08 7.12153 9.84 5.64953 9.84H5.02553V7.584H5.67353C6.96953 7.568 7.95353 7.352 8.62553 6.936C9.31353 6.52 9.65753 5.864 9.65753 4.968C9.65753 4.2 9.40953 3.592 8.91353 3.144C8.41753 2.68 7.71353 2.448 6.80153 2.448C5.90553 2.448 5.20953 2.68 4.71353 3.144C4.21753 3.592 3.92153 4.152 3.82553 4.824H1.16153ZM18.5555 0.24V18H15.8195V0.24H18.5555ZM34.2677 11.064C34.2677 11.56 34.2357 12.008 34.1717 12.408H24.0677C24.1477 13.464 24.5397 14.312 25.2437 14.952C25.9477 15.592 26.8117 15.912 27.8357 15.912C29.3077 15.912 30.3477 15.296 30.9557 14.064H33.9077C33.5077 15.28 32.7797 16.28 31.7237 17.064C30.6837 17.832 29.3877 18.216 27.8357 18.216C26.5717 18.216 25.4357 17.936 24.4277 17.376C23.4357 16.8 22.6517 16 22.0757 14.976C21.5157 13.936 21.2357 12.736 21.2357 11.376C21.2357 10.016 21.5077 8.824 22.0517 7.8C22.6117 6.76 23.3877 5.96 24.3797 5.4C25.3877 4.84 26.5397 4.56 27.8357 4.56C29.0837 4.56 30.1957 4.832 31.1717 5.376C32.1477 5.92 32.9077 6.688 33.4517 7.68C33.9957 8.656 34.2677 9.784 34.2677 11.064ZM31.4117 10.2C31.3957 9.192 31.0357 8.384 30.3317 7.776C29.6277 7.168 28.7557 6.864 27.7157 6.864C26.7717 6.864 25.9637 7.168 25.2917 7.776C24.6197 8.368 24.2197 9.176 24.0917 10.2H31.4117ZM42.2882 4.56C43.3122 4.56 44.2162 4.768 45.0002 5.184C45.8002 5.584 46.4242 6.088 46.8722 6.696V4.776H49.6322V18.216C49.6322 19.432 49.3762 20.512 48.8642 21.456C48.3522 22.416 47.6082 23.168 46.6322 23.712C45.6722 24.256 44.5202 24.528 43.1762 24.528C41.3842 24.528 39.8962 24.104 38.7122 23.256C37.5282 22.424 36.8562 21.288 36.6962 19.848H39.4082C39.6162 20.536 40.0562 21.088 40.7282 21.504C41.4162 21.936 42.2322 22.152 43.1762 22.152C44.2802 22.152 45.1682 21.816 45.8402 21.144C46.5282 20.472 46.8722 19.496 46.8722 18.216V16.008C46.4082 16.632 45.7762 17.16 44.9762 17.592C44.1922 18.008 43.2962 18.216 42.2882 18.216C41.1362 18.216 40.0802 17.928 39.1202 17.352C38.1762 16.76 37.4242 15.944 36.8642 14.904C36.3202 13.848 36.0482 12.656 36.0482 11.328C36.0482 10 36.3202 8.824 36.8642 7.8C37.4242 6.776 38.1762 5.984 39.1202 5.424C40.0802 4.848 41.1362 4.56 42.2882 4.56ZM46.8722 11.376C46.8722 10.464 46.6802 9.672 46.2962 9C45.9282 8.328 45.4402 7.816 44.8322 7.464C44.2242 7.112 43.5682 6.936 42.8642 6.936C42.1602 6.936 41.5042 7.112 40.8962 7.464C40.2882 7.8 39.7922 8.304 39.4082 8.976C39.0402 9.632 38.8562 10.416 38.8562 11.328C38.8562 12.24 39.0402 13.04 39.4082 13.728C39.7922 14.416 40.2882 14.944 40.8962 15.312C41.5202 15.664 42.1762 15.84 42.8642 15.84C43.5682 15.84 44.2242 15.664 44.8322 15.312C45.4402 14.96 45.9282 14.448 46.2962 13.776C46.6802 13.088 46.8722 12.288 46.8722 11.376ZM52.3138 11.328C52.3138 10 52.5858 8.824 53.1298 7.8C53.6898 6.776 54.4418 5.984 55.3858 5.424C56.3458 4.848 57.4018 4.56 58.5538 4.56C59.5938 4.56 60.4978 4.768 61.2658 5.184C62.0498 5.584 62.6738 6.088 63.1378 6.696V4.776H65.8978V18H63.1378V16.032C62.6738 16.656 62.0418 17.176 61.2418 17.592C60.4418 18.008 59.5298 18.216 58.5058 18.216C57.3698 18.216 56.3298 17.928 55.3858 17.352C54.4418 16.76 53.6898 15.944 53.1298 14.904C52.5858 13.848 52.3138 12.656 52.3138 11.328ZM63.1378 11.376C63.1378 10.464 62.9458 9.672 62.5618 9C62.1938 8.328 61.7058 7.816 61.0978 7.464C60.4898 7.112 59.8338 6.936 59.1298 6.936C58.4258 6.936 57.7698 7.112 57.1618 7.464C56.5538 7.8 56.0578 8.304 55.6738 8.976C55.3058 9.632 55.1218 10.416 55.1218 11.328C55.1218 12.24 55.3058 13.04 55.6738 13.728C56.0578 14.416 56.5538 14.944 57.1618 15.312C57.7858 15.664 58.4418 15.84 59.1298 15.84C59.8338 15.84 60.4898 15.664 61.0978 15.312C61.7058 14.96 62.1938 14.448 62.5618 13.776C62.9458 13.088 63.1378 12.288 63.1378 11.376ZM76.1634 4.56C77.2034 4.56 78.1314 4.776 78.9474 5.208C79.7794 5.64 80.4274 6.28 80.8914 7.128C81.3554 7.976 81.5874 9 81.5874 10.2V18H78.8754V10.608C78.8754 9.424 78.5794 8.52 77.9874 7.896C77.3954 7.256 76.5874 6.936 75.5634 6.936C74.5394 6.936 73.7234 7.256 73.1154 7.896C72.5234 8.52 72.2274 9.424 72.2274 10.608V18H69.4914V4.776H72.2274V6.288C72.6754 5.744 73.2434 5.32 73.9314 5.016C74.6354 4.712 75.3794 4.56 76.1634 4.56ZM88.2693 7.008V14.328C88.2693 14.824 88.3813 15.184 88.6053 15.408C88.8453 15.616 89.2453 15.72 89.8053 15.72H91.4853V18H89.3253C88.0933 18 87.1493 17.712 86.4933 17.136C85.8373 16.56 85.5093 15.624 85.5093 14.328V7.008H83.9493V4.776H85.5093V1.488H88.2693V4.776H91.4853V7.008H88.2693Z" fill="white"/>
<path d="M95.111 18.168C94.615 18.168 94.199 18 93.863 17.664C93.527 17.328 93.359 16.912 93.359 16.416C93.359 15.92 93.527 15.504 93.863 15.168C94.199 14.832 94.615 14.664 95.111 14.664C95.591 14.664 95.999 14.832 96.335 15.168C96.671 15.504 96.839 15.92 96.839 16.416C96.839 16.912 96.671 17.328 96.335 17.664C95.999 18 95.591 18.168 95.111 18.168Z" fill="#6C7275"/>
</svg>
