<svg width="24" height="25" viewBox="0 0 24 25" fill="none" xmlns="http://www.w3.org/2000/svg">
<path d="M12.9999 15.7501C12.9999 15.1533 13.237 14.581 13.659 14.1591C14.0809 13.7371 14.6532 13.5001 15.2499 13.5001L18.7499 13.5001C19.3467 13.5001 19.919 13.7371 20.3409 14.1591C20.7629 14.581 20.9999 15.1533 20.9999 15.7501L20.9999 19.2501C20.9999 19.8468 20.7629 20.4191 20.3409 20.8411C19.919 21.263 19.3467 21.5001 18.7499 21.5001L15.2499 21.5001C14.6532 21.5001 14.0809 21.263 13.659 20.8411C13.237 20.4191 12.9999 19.8468 12.9999 19.2501L12.9999 15.7501ZM12.9999 5.75006C12.9999 5.15332 13.237 4.58103 13.6589 4.15907C14.0809 3.73711 14.6532 3.50006 15.2499 3.50006L18.7499 3.50006C19.3467 3.50006 19.919 3.73711 20.3409 4.15907C20.7629 4.58103 20.9999 5.15332 20.9999 5.75006L20.9999 9.25006C20.9999 9.8468 20.7629 10.4191 20.3409 10.8411C19.919 11.263 19.3467 11.5001 18.7499 11.5001L15.2499 11.5001C14.6532 11.5001 14.0809 11.263 13.6589 10.8411C13.237 10.4191 12.9999 9.8468 12.9999 9.25006L12.9999 5.75006ZM2.99994 15.7501C2.99994 15.1533 3.23699 14.581 3.65895 14.1591C4.08091 13.7371 4.6532 13.5001 5.24994 13.5001L8.74994 13.5001C9.34668 13.5001 9.91897 13.7371 10.3409 14.1591C10.7629 14.581 10.9999 15.1533 10.9999 15.7501L10.9999 19.2501C10.9999 19.8468 10.7629 20.4191 10.3409 20.8411C9.91897 21.263 9.34668 21.5001 8.74994 21.5001L5.24994 21.5001C4.6532 21.5001 4.08091 21.263 3.65895 20.8411C3.23699 20.4191 2.99994 19.8468 2.99994 19.2501L2.99994 15.7501ZM2.99994 5.75006C2.99994 5.15332 3.23699 4.58103 3.65895 4.15907C4.08091 3.73711 4.6532 3.50006 5.24994 3.50006L8.74994 3.50006C9.34668 3.50006 9.91897 3.73711 10.3409 4.15907C10.7629 4.58103 10.9999 5.15332 10.9999 5.75006L10.9999 9.25006C10.9999 9.8468 10.7629 10.4191 10.3409 10.8411C9.91897 11.263 9.34668 11.5001 8.74994 11.5001L5.24994 11.5001C4.6532 11.5001 4.08091 11.263 3.65895 10.8411C3.23699 10.4191 2.99994 9.8468 2.99994 9.25006L2.99994 5.75006Z" fill="#6C7275"/>
<path d="M5.99994 21.5001L5.99994 13.502L17.9999 13.502L17.9999 21.5001L5.99994 21.5001Z" fill="#6C7275"/>
<path d="M5.99994 11.4981L5.99994 3.50006L17.9999 3.50006L17.9999 11.4981L5.99994 11.4981Z" fill="#6C7275"/>
</svg>
